<svg width="48" height="34" viewBox="0 0 48 34" fill="none" xmlns="http://www.w3.org/2000/svg">
<path d="M24.1545 0H24.4215C26.8877 0.00907554 39.3835 0.0998315 42.7527 1.01344C43.7712 1.29226 44.6993 1.83575 45.4443 2.58958C46.1893 3.34341 46.725 4.28119 46.9979 5.30919C47.301 6.45876 47.514 7.98043 47.658 9.55049L47.688 9.86511L47.754 10.6517L47.778 10.9663C47.973 13.7313 47.997 16.3208 48 16.8866V17.1134C47.997 17.7003 47.97 20.4653 47.754 23.3453L47.73 23.663L47.703 23.9776C47.553 25.708 47.331 27.4263 46.9979 28.6908C46.725 29.7188 46.1893 30.6566 45.4443 31.4104C44.6993 32.1643 43.7712 32.7077 42.7527 32.9866C39.2725 33.9304 26.0446 33.997 24.2115 34H23.7855C22.8584 34 19.0242 33.9818 15.0039 33.8427L14.4939 33.8245L14.2329 33.8124L13.7199 33.7913L13.2068 33.7701C9.87662 33.6219 6.70542 33.3829 5.24433 32.9835C4.22615 32.705 3.29825 32.1619 2.55331 31.4087C1.80837 30.6554 1.27245 29.7183 0.999062 28.6908C0.666042 27.4293 0.444028 25.708 0.294018 23.9776L0.270017 23.6599L0.246015 23.3453C0.0970963 21.2955 0.0150469 19.2413 0 17.186L0 16.814C0.00600038 16.1635 0.0300019 13.9158 0.192012 11.4352L0.213013 11.1236L0.222014 10.9663L0.246015 10.6517L0.31202 9.86511L0.342021 9.55049C0.48603 7.98043 0.699044 6.45573 1.00206 5.30919C1.27499 4.28119 1.81071 3.34341 2.55568 2.58958C3.30065 1.83575 4.22879 1.29226 5.24733 1.01344C6.70842 0.620162 9.87962 0.378147 13.2098 0.226888L13.7199 0.205712L14.2359 0.187562L14.4939 0.178486L15.0069 0.15731C17.8622 0.0647498 20.7187 0.0133161 23.5755 0.00302532L24.1545 0ZM19.2012 9.71083V24.2861L31.673 17.0015L19.2012 9.71083Z" fill="black"/>
</svg>
