<svg width="54" height="104" viewBox="0 0 54 104" fill="none" xmlns="http://www.w3.org/2000/svg">
<path d="M17.4212 31.9531C20.2704 22.4485 33.7296 22.4485 36.5788 31.9531L46.5241 65.1285C48.4474 71.5442 43.643 78 36.9452 78H17.0548C10.357 78 5.55263 71.5442 7.47591 65.1285L17.4212 31.9531Z" fill="#D9D9D9"/>
<path d="M38.2549 56.9707C37.683 56.878 36.4691 56.7462 34.6143 56.5762C33.5014 56.5298 32.1875 56.4989 30.6729 56.4834L30.2793 63.9492C31.8714 63.9801 34.3293 63.8643 37.6523 63.6016C37.4978 64.2971 37.2582 65.4412 36.9336 67.0332C36.7636 67.976 36.5779 69.1122 36.377 70.4414C35.9442 70.3487 34.9469 70.2099 33.3857 70.0244C32.2265 69.9317 31.0825 69.9007 29.9541 69.9316L29.7686 78H16.7617L16.043 59.8223C15.9193 55.6489 15.5719 49.8368 15 42.3867H39.2051L38.2549 56.9707ZM23.4531 18V19.8545H24.3311C24.623 19.8504 24.9124 19.9123 25.1777 20.0342C25.4431 20.1561 25.6782 20.3354 25.8652 20.5596C26.0368 20.7689 26.1498 21.0206 26.1914 21.2881C26.2329 21.5555 26.2015 21.8296 26.1016 22.0811L25.2842 24.0635V25.4189C25.4393 29.1772 25.8055 32.9246 26.3818 36.6416C26.8662 36.7794 27.2928 37.0711 27.5967 37.4727C27.9004 37.8742 28.0655 38.3638 28.0664 38.8672V40.2578H16.0098V38.8672C16.0098 38.3555 16.179 37.8576 16.4912 37.4521C16.8033 37.0468 17.2408 36.7558 17.7354 36.625C18.2977 32.9126 18.6507 29.1711 18.792 25.4189V24.0586L17.9775 22.0938C17.8756 21.841 17.8431 21.5654 17.8838 21.2959C17.9246 21.0263 18.0377 20.772 18.21 20.5605C18.397 20.3364 18.6313 20.1562 18.8965 20.0342C19.1617 19.9121 19.4512 19.8507 19.7432 19.8545H20.6709V18H23.4531ZM29.9209 25.4189V27.2744H30.8486V25.4189H33.6309V27.2744H34.5586V25.4189H37.3408V30.0566H36.4131V36.5947C36.9367 36.7016 37.4071 36.9864 37.7451 37.4004C38.0831 37.8144 38.2677 38.3327 38.2676 38.8672V40.2578H29.9209V38.8672C29.9203 38.1814 29.7512 37.506 29.4277 36.9014C29.1043 36.2968 28.6365 35.7814 28.0664 35.4004V30.0566H27.1387V25.4189H29.9209ZM21.5391 26.8105C21.4092 29.9118 20.908 33.9641 20.5537 36.5488H23.5576C23.1931 33.9604 22.6781 29.9044 22.5381 26.8105H21.5391ZM30.8486 30.0566V36.5488H33.6309V30.0566H30.8486Z" fill="black"/>
</svg>
