<svg width="48" height="48" viewBox="0 0 48 48" fill="none" xmlns="http://www.w3.org/2000/svg">
<path d="M43.4055 0H4.59453C2.05704 0 0 2.05704 0 4.59453V43.4055C0 45.943 2.05704 48 4.59453 48H43.4055C45.943 48 48 45.943 48 43.4055V4.59453C48 2.05704 45.943 0 43.4055 0Z" fill="black"/>
<path d="M36.1688 19.0624V23.5933C35.3757 23.5158 34.3483 23.3369 33.2093 22.9191C31.7218 22.3741 30.6151 21.629 29.8912 21.0516V30.2112L29.8737 30.1826C29.8866 30.3634 29.8912 30.5487 29.8912 30.735C29.8912 35.2844 26.1903 38.9871 21.6391 38.9871C17.0879 38.9871 13.387 35.2844 13.387 30.735C13.387 26.1857 17.0879 22.4811 21.6391 22.4811C22.0836 22.4811 22.5217 22.5171 22.9487 22.5853V27.0516C22.5383 26.9041 22.0984 26.8257 21.6391 26.8257C19.4848 26.8257 17.7307 28.5779 17.7307 30.7341C17.7307 32.8903 19.4848 34.6425 21.6391 34.6425C23.7934 34.6425 25.5475 32.8884 25.5475 30.7341C25.5475 30.6529 25.5456 30.5727 25.5401 30.4915V12.6917H30.0692C30.0858 13.0753 30.1014 13.4608 30.118 13.8454C30.1485 14.6007 30.4178 15.3255 30.8853 15.9195C31.4359 16.6176 32.2465 17.4282 33.3873 18.0756C34.4543 18.6806 35.4577 18.9407 36.1678 19.0624H36.1688Z" fill="#FF004F"/>
<path d="M34.613 15.3836V19.9145C33.8199 19.8371 32.7925 19.6582 31.6536 19.2404C30.166 18.6954 29.0593 17.9502 28.3354 17.3729V26.5324L28.3179 26.5038C28.3308 26.6846 28.3354 26.87 28.3354 27.0563C28.3354 31.6056 24.6345 35.3083 20.0833 35.3083C15.5321 35.3083 11.8312 31.6056 11.8312 27.0563C11.8312 22.5069 15.5321 18.8023 20.0833 18.8023C20.5278 18.8023 20.9659 18.8383 21.3929 18.9065V23.3729C20.9825 23.2253 20.5426 23.1469 20.0833 23.1469C17.929 23.1469 16.1749 24.8992 16.1749 27.0553C16.1749 29.2115 17.929 30.9637 20.0833 30.9637C22.2376 30.9637 23.9917 29.2097 23.9917 27.0553C23.9917 26.9742 23.9899 26.8939 23.9843 26.8128V9.01383H28.5134C28.53 9.39748 28.5457 9.78297 28.5623 10.1675C28.5927 10.9228 28.862 11.6477 29.3305 12.2416C29.881 12.9397 30.6917 13.7504 31.8325 14.3978C32.8995 15.0028 33.9029 15.2628 34.613 15.3846V15.3836Z" fill="#00F7EF"/>
<path d="M35.6035 17.3646V21.8955C34.8103 21.818 33.783 21.6391 32.644 21.2213C31.1565 20.6763 30.0498 19.9311 29.3259 19.3538V28.5134L29.3083 28.4848C29.3213 28.6655 29.3259 28.8509 29.3259 29.0372C29.3259 33.5865 25.625 37.2893 21.0738 37.2893C16.5226 37.2893 12.8217 33.5865 12.8217 29.0372C12.8217 24.4879 16.5226 20.7833 21.0738 20.7833C21.5183 20.7833 21.9564 20.8192 22.3834 20.8875V25.3538C21.973 25.2063 21.5331 25.1279 21.0738 25.1279C18.9195 25.1279 17.1654 26.8801 17.1654 29.0363C17.1654 31.1924 18.9195 32.9447 21.0738 32.9447C23.2281 32.9447 24.9822 31.1906 24.9822 29.0363C24.9822 28.9551 24.9803 28.8749 24.9748 28.7937V10.9948H29.5039C29.5205 11.3784 29.5361 11.7639 29.5527 12.1485C29.5832 12.9038 29.8525 13.6287 30.32 14.2226C30.8706 14.9207 31.6812 15.7313 32.822 16.3787C33.889 16.9837 34.8924 17.2438 35.6025 17.3655L35.6035 17.3646Z" fill="white"/>
</svg>
