<svg width="48" height="48" viewBox="0 0 48 48" fill="none" xmlns="http://www.w3.org/2000/svg">
<path fill-rule="evenodd" clip-rule="evenodd" d="M48 6.85714C48 3.06857 44.9314 0 41.1429 0H6.85714C3.06857 0 0 3.06857 0 6.85714V41.1429C0 44.9314 3.06857 48 6.85714 48H41.1429C44.9314 48 48 44.9314 48 41.1429V6.85714Z" fill="#050505"/>
<path d="M9.84 37.9086H13.2686L22.4229 27.5029L30.3857 37.8914H39.6943L27.48 21.7429L37.8171 10H34.3886L25.8943 19.6514L18.6086 10.0086H9L20.82 25.4286L9.83143 37.9171L9.84 37.9086ZM14.22 12.5714H17.34L34.5343 35.32H31.6629L14.2286 12.5714H14.22Z" fill="white"/>
</svg>
